<?xml version="1.0" encoding="iso-8859-1"?>
<!-- Generator: Adobe Illustrator 23.0.0, SVG Export Plug-In . SVG Version: 6.00 Build 0)  -->
<svg version="1.1" id="&#x56FE;&#x5C42;_1" xmlns="http://www.w3.org/2000/svg" xmlns:xlink="http://www.w3.org/1999/xlink" x="0px"
	 y="0px" viewBox="0 0 500 500" style="enable-background:new 0 0 500 500;" xml:space="preserve">
<g>
	<radialGradient id="SVGID_1_" cx="250" cy="250" r="236" gradientUnits="userSpaceOnUse">
		<stop  offset="0" style="stop-color:#FFBD63"/>
		<stop  offset="1" style="stop-color:#FFBD63;stop-opacity:0"/>
	</radialGradient>
	<circle style="fill:url(#SVGID_1_);" cx="250" cy="250" r="236"/>
	<circle style="opacity:0.1;fill:#FFBD63;" cx="250" cy="250" r="196.969"/>
	<circle style="opacity:0.3;fill:#FFBD63;" cx="250" cy="250" r="178.362"/>
	<circle style="fill:#FFBD63;" cx="250" cy="250" r="161.115"/>
	<path style="fill:#FF933B;" d="M250,88.885c-25.596,0-49.797,5.97-71.289,16.592c-2.039,8.417-1.323,20.508,7.65,37.772
		c19.345,37.223-6.403,58.158-13.928,80.434c-8.173,24.195-39.371,22.176-51.772,64.832c-3.658,12.582-12.385,18.831-20.049,21.935
		c0.928,2.29,1.907,4.554,2.936,6.791c2.428,4.494,5.107,9.626,8,15.198c28.116,47.117,79.598,78.676,138.452,78.676
		c88.982,0,161.115-72.134,161.115-161.115S338.982,88.885,250,88.885z"/>
	<path style="fill:#FF563D;" d="M250,88.885c-2.802,0-5.586,0.072-8.353,0.213c13.438,12.855,25.795,29.855,14.011,45.292
		c-24.315,31.85,14.096,85.335-5.204,105.626c-23.594,24.804-44.477,98.938-81.616,104.054
		c-15.043,2.072-26.346,9.553-34.577,18.012c29.288,30.237,70.317,49.035,115.738,49.035c88.982,0,161.115-72.134,161.115-161.115
		S338.982,88.885,250,88.885z"/>
	<path style="fill:#FF0042;" d="M411.115,250c0-45.378-18.762-86.373-48.949-115.655c-14.844,11.404-33.197,27.689-33.197,38.502
		c0,18.154,17.7,46.746,17.7,51.738s-44.477,33.585-44.477,59c0,25.415,7.715,49.469,6.354,60.362
		c-1.362,10.892-65.354,29.954-67.623,55.369c-0.347,3.886-0.364,7.76-0.145,11.537c3.052,0.172,6.127,0.263,9.222,0.263
		C338.982,411.115,411.115,338.982,411.115,250z"/>
</g>
</svg>
