<svg xmlns="http://www.w3.org/2000/svg" width="256" height="256" viewBox="0 0 100 100"><rect width="100" height="100" rx="20" fill="#8c8c8c"></rect><path fill="#fff" d="M39.40 64.75L6.20 64.75Q5.00 63.65 4.30 62.25Q3.60 60.85 3.60 59.15L3.60 59.15Q3.60 57.45 4.35 56Q5.10 54.55 6.20 53.15L6.20 53.15L27.40 27.35L5.40 27.35Q4.90 26.55 4.50 25.20Q4.10 23.85 4.10 22.35L4.10 22.35Q4.10 19.75 5.30 18.55Q6.50 17.35 8.50 17.35L8.50 17.35L40.30 17.35Q41.50 18.45 42.20 19.85Q42.90 21.25 42.90 23.05L42.90 23.05Q42.90 24.65 42.15 26.10Q41.40 27.55 40.30 28.95L40.30 28.95L19.20 54.85L42.50 54.85Q43.00 55.65 43.40 56.95Q43.80 58.25 43.80 59.75L43.80 59.75Q43.80 62.35 42.60 63.55Q41.40 64.75 39.40 64.75L39.40 64.75ZM62 53.35L62 53.35Q59.60 48.35 56.30 39.85Q53 31.35 49.70 19.25L49.70 19.25Q50.70 18.05 52.50 17.20Q54.30 16.35 56.40 16.35L56.40 16.35Q59 16.35 60.65 17.55Q62.30 18.75 63.30 21.85L63.30 21.85Q68 36.95 74 52.45L74 52.45L74.40 52.45Q75.70 49.15 77.15 44.95Q78.60 40.75 79.95 36.15Q81.30 31.55 82.50 26.85Q83.70 22.15 84.60 17.75L84.60 17.75Q85.80 17.15 87.15 16.75Q88.50 16.35 90 16.35L90 16.35Q92.60 16.35 94.50 17.55Q96.40 18.75 96.40 21.45L96.40 21.45Q96.40 24.45 95.10 29.90Q93.80 35.35 91.65 41.60Q89.50 47.85 86.80 54.20Q84.10 60.55 81.40 65.35L81.40 65.35Q76.20 74.55 71.95 79.10Q67.70 83.65 63.60 83.65L63.60 83.65Q60.40 83.65 58.45 81.80Q56.50 79.95 56 77.15L56 77.15Q57.60 75.75 59.40 73.90Q61.20 72.05 63 69.95Q64.80 67.85 66.40 65.65Q68 63.45 69.20 61.35L69.20 61.35Q68.30 61.05 67.45 60.60Q66.60 60.15 65.75 59.25Q64.90 58.35 63.95 56.95Q63 55.55 62 53.35Z"></path></svg>