<?xml version="1.0" standalone="no"?><!DOCTYPE svg PUBLIC "-//W3C//DTD SVG 1.1//EN" "http://www.w3.org/Graphics/SVG/1.1/DTD/svg11.dtd"><svg height="1000" legacy-metrics="false" node-id="1" sillyvg="true" template-height="1000" template-width="1000" version="1.1" viewBox="0 0 1000 1000" width="1000" xmlns="http://www.w3.org/2000/svg" xmlns:xlink="http://www.w3.org/1999/xlink"><defs node-id="211"><linearGradient gradientUnits="userSpaceOnUse" id="XMLID_2_" node-id="5" x1="489.3452" x2="489.3452" y1="825.1896" y2="144.9488"><stop offset="0" stop-color="#4a3844"></stop><stop offset="0.2654" stop-color="#ef7476"></stop><stop offset="0.7702" stop-color="#e9454e"></stop><stop offset="0.9604" stop-color="#3c2c37"></stop></linearGradient><clipPath id="XMLID_3_" node-id="11"><path d="M 275.87 391.49 C 275.87 391.49 313.06 350.99 304.61 324.15 C 296.16 297.32 263.36 288.62 234.79 296.32 C 234.79 296.32 244.06 235.78 292.44 199.99 C 340.81 164.21 388.52 190.05 395.81 196.68 L 378.58 154.27 C 378.58 154.27 448.98 112.36 531.98 154.27 C 531.98 154.27 550.36 162.89 580.68 157.92 C 610.99 152.95 676.10 195.19 677.09 214.07 C 677.09 214.07 794.38 304.03 737.72 468.03 C 737.72 468.03 723.81 520.71 704.92 539.59 C 704.92 539.59 704.92 584.44 672.12 598.79 C 672.12 598.79 681.07 640.48 661.19 652.40 C 661.19 652.40 623.42 617.62 617.95 674.77 C 617.95 674.77 611.16 712.87 629.05 742.69 C 629.05 742.69 651.25 730.43 665.16 766.21 C 679.08 801.99 694.98 818.89 703.93 849.70 L 402.76 849.70 C 402.76 849.70 409.72 825.85 430.59 812.92 C 451.46 800.00 436.56 661.85 380.89 672.78 C 325.23 683.71 256.65 686.69 263.61 654.89 C 270.57 623.08 269.90 555.82 257.31 536.61 C 257.31 536.61 226.83 527.99 225.51 515.40 C 225.51 515.40 253.34 472.33 277.86 440.53 C 277.86 440.53 256.65 407.40 275.87 391.49 Z" fill="#000000" fill-rule="nonzero" node-id="224" stroke="none" target-height="714.0419" target-width="527.69116" target-x="225.509" target-y="135.65813"></path></clipPath><linearGradient gradientUnits="userSpaceOnUse" id="SVGID_1_" node-id="13" x1="499.612" x2="499.612" y1="746.3185" y2="606.7303"><stop offset="0" stop-color="#ffffff" stop-opacity="0.5"></stop><stop offset="0.6248" stop-color="#ffffff" stop-opacity="0"></stop></linearGradient><radialGradient cx="499.0146" cy="509.1514" fx="499.0146" fy="509.1514" gradientUnits="userSpaceOnUse" id="SVGID_2_" node-id="17" r="258.7025"><stop offset="0" stop-color="#ffffff"></stop><stop offset="0.9168" stop-color="#ffffff" stop-opacity="0"></stop></radialGradient><clipPath id="XMLID_4_" node-id="25"><path d="M 689.10 568.50 C 694.85 549.93 697.95 530.20 697.95 509.75 C 697.95 400.21 609.15 311.41 499.61 311.41 C 390.07 311.41 301.28 400.21 301.28 509.75 C 301.28 530.20 304.38 549.93 310.12 568.50 L 689.10 568.50 Z" fill="#000000" fill-rule="nonzero" node-id="240" stroke="none" target-height="257.084" target-width="396.672" target-x="301.276" target-y="311.413"></path></clipPath><clipPath id="SVGID_4_" node-id="35"><path d="M 219.19 580.52 L 363.41 687.42 L 543.93 568.42 L 199.02 568.42 Z" fill="#000000" fill-rule="nonzero" node-id="244" stroke="none" target-height="119.00299" target-width="344.90704" target-x="199.024" target-y="568.419"></path></clipPath><clipPath id="SVGID_6_" node-id="44"><path d="M 460.15 568.48 L 624.88 767.49 L 789.60 568.48 Z" fill="#000000" fill-rule="nonzero" node-id="248" stroke="none" target-height="199.01099" target-width="329.444" target-x="460.155" target-y="568.482"></path></clipPath><clipPath id="SVGID_8_" node-id="54"><path d="M 219.18 556.46 L 363.40 449.56 L 543.92 568.56 L 199.01 568.56 Z" fill="#000000" fill-rule="nonzero" node-id="252" stroke="none" target-height="119.00302" target-width="344.90698" target-x="199.013" target-y="449.556"></path></clipPath><clipPath id="SVGID_10_" node-id="63"><path d="M 460.14 568.50 L 624.87 369.49 L 789.59 568.50 Z" fill="#000000" fill-rule="nonzero" node-id="256" stroke="none" target-height="199.01102" target-width="329.444" target-x="460.144" target-y="369.486"></path></clipPath><linearGradient gradientUnits="userSpaceOnUse" id="SVGID_11_" node-id="69" x1="559.8443" x2="559.8443" y1="595.2538" y2="692.0989"><stop offset="0" stop-color="#ffffff" stop-opacity="0.2"></stop><stop offset="1" stop-color="#ffffff" stop-opacity="0"></stop></linearGradient><linearGradient gradientUnits="userSpaceOnUse" id="SVGID_12_" node-id="73" x1="586.7788" x2="585.1599" y1="674.9418" y2="762.6711"><stop offset="0" stop-color="#ffffff" stop-opacity="0.3"></stop><stop offset="1" stop-color="#ffffff" stop-opacity="0"></stop></linearGradient><linearGradient gradientUnits="userSpaceOnUse" id="SVGID_13_" node-id="77" x1="636.8617" x2="636.8617" y1="763.235" y2="816.7017"><stop offset="0" stop-color="#ffffff" stop-opacity="0.1"></stop><stop offset="1" stop-color="#ffffff" stop-opacity="0"></stop></linearGradient><linearGradient gradientUnits="userSpaceOnUse" id="SVGID_14_" node-id="81" x1="610.5527" x2="610.5527" y1="778.4681" y2="854.491"><stop offset="0" stop-color="#ffffff" stop-opacity="0.2"></stop><stop offset="1" stop-color="#ffffff" stop-opacity="0"></stop></linearGradient><linearGradient gradientUnits="userSpaceOnUse" id="SVGID_15_" node-id="85" x1="510.7155" x2="510.7155" y1="479.6631" y2="890.5485"><stop offset="0.3324" stop-color="#e2335c" stop-opacity="0.5"></stop><stop offset="0.6508" stop-color="#ea5f3b" stop-opacity="0.3"></stop><stop offset="1" stop-color="#ffffff" stop-opacity="0"></stop></linearGradient><linearGradient gradientTransform="matrix(0.7071 0.7071 -0.7071 0.7071 952.1338 -250.8359)" gradientUnits="userSpaceOnUse" id="SVGID_16_" node-id="114" x1="-71.1437" x2="-71.1437" y1="780.6553" y2="700.7449"><stop offset="0" stop-color="#ffa561"></stop><stop offset="0.1339" stop-color="#ffa865" stop-opacity="0.8539"></stop><stop offset="0.2812" stop-color="#ffaf73" stop-opacity="0.6933"></stop><stop offset="0.4348" stop-color="#ffbc89" stop-opacity="0.5257"></stop><stop offset="0.5929" stop-color="#ffcda8" stop-opacity="0.3533"></stop><stop offset="0.7543" stop-color="#ffe4cf" stop-opacity="0.1772"></stop><stop offset="0.9168" stop-color="#ffffff" stop-opacity="0"></stop></linearGradient><linearGradient gradientTransform="matrix(0.7071 0.7071 -0.7071 0.7071 952.1338 -250.8359)" gradientUnits="userSpaceOnUse" id="SVGID_17_" node-id="123" x1="211.7041" x2="211.7041" y1="596.9095" y2="546.2166"><stop offset="0" stop-color="#ffa561"></stop><stop offset="0.1339" stop-color="#ffa865" stop-opacity="0.8539"></stop><stop offset="0.2812" stop-color="#ffaf73" stop-opacity="0.6933"></stop><stop offset="0.4348" stop-color="#ffbc89" stop-opacity="0.5257"></stop><stop offset="0.5929" stop-color="#ffcda8" stop-opacity="0.3533"></stop><stop offset="0.7543" stop-color="#ffe4cf" stop-opacity="0.1772"></stop><stop offset="0.9168" stop-color="#ffffff" stop-opacity="0"></stop></linearGradient><linearGradient gradientTransform="matrix(0.7071 0.7071 -0.7071 0.7071 952.1338 -250.8359)" gradientUnits="userSpaceOnUse" id="SVGID_18_" node-id="132" x1="77.6124" x2="77.6124" y1="602.1724" y2="488.9927"><stop offset="0" stop-color="#ffa561"></stop><stop offset="0.1339" stop-color="#ffa865" stop-opacity="0.8539"></stop><stop offset="0.2812" stop-color="#ffaf73" stop-opacity="0.6933"></stop><stop offset="0.4348" stop-color="#ffbc89" stop-opacity="0.5257"></stop><stop offset="0.5929" stop-color="#ffcda8" stop-opacity="0.3533"></stop><stop offset="0.7543" stop-color="#ffe4cf" stop-opacity="0.1772"></stop><stop offset="0.9168" stop-color="#ffffff" stop-opacity="0"></stop></linearGradient><linearGradient gradientTransform="matrix(0.7071 0.7071 -0.7071 0.7071 952.1338 -250.8359)" gradientUnits="userSpaceOnUse" id="SVGID_19_" node-id="141" x1="-17.6652" x2="-17.6652" y1="954.5587" y2="874.6484"><stop offset="0" stop-color="#ffa561"></stop><stop offset="0.1339" stop-color="#ffa865" stop-opacity="0.8539"></stop><stop offset="0.2812" stop-color="#ffaf73" stop-opacity="0.6933"></stop><stop offset="0.4348" stop-color="#ffbc89" stop-opacity="0.5257"></stop><stop offset="0.5929" stop-color="#ffcda8" stop-opacity="0.3533"></stop><stop offset="0.7543" stop-color="#ffe4cf" stop-opacity="0.1772"></stop><stop offset="0.9168" stop-color="#ffffff" stop-opacity="0"></stop></linearGradient><linearGradient gradientTransform="matrix(0.7071 -0.7071 -0.7071 -0.7071 952.1338 2322.7275)" gradientUnits="userSpaceOnUse" id="SVGID_20_" node-id="174" x1="647.9473" x2="647.9473" y1="1499.7462" y2="1419.8359"><stop offset="0" stop-color="#ffa561"></stop><stop offset="0.1339" stop-color="#ffa865" stop-opacity="0.8539"></stop><stop offset="0.2812" stop-color="#ffaf73" stop-opacity="0.6933"></stop><stop offset="0.4348" stop-color="#ffbc89" stop-opacity="0.5257"></stop><stop offset="0.5929" stop-color="#ffcda8" stop-opacity="0.3533"></stop><stop offset="0.7543" stop-color="#ffe4cf" stop-opacity="0.1772"></stop><stop offset="0.9168" stop-color="#ffffff" stop-opacity="0"></stop></linearGradient><linearGradient gradientTransform="matrix(0.7071 -0.7071 -0.7071 -0.7071 952.1338 2322.7275)" gradientUnits="userSpaceOnUse" id="SVGID_21_" node-id="183" x1="930.7951" x2="930.7951" y1="1316.0005" y2="1265.3075"><stop offset="0" stop-color="#ffa561"></stop><stop offset="0.1339" stop-color="#ffa865" stop-opacity="0.8539"></stop><stop offset="0.2812" stop-color="#ffaf73" stop-opacity="0.6933"></stop><stop offset="0.4348" stop-color="#ffbc89" stop-opacity="0.5257"></stop><stop offset="0.5929" stop-color="#ffcda8" stop-opacity="0.3533"></stop><stop offset="0.7543" stop-color="#ffe4cf" stop-opacity="0.1772"></stop><stop offset="0.9168" stop-color="#ffffff" stop-opacity="0"></stop></linearGradient><linearGradient gradientTransform="matrix(0.7071 -0.7071 -0.7071 -0.7071 952.1338 2322.7275)" gradientUnits="userSpaceOnUse" id="SVGID_22_" node-id="192" x1="796.7034" x2="796.7034" y1="1321.2634" y2="1208.0837"><stop offset="0" stop-color="#ffa561"></stop><stop offset="0.1339" stop-color="#ffa865" stop-opacity="0.8539"></stop><stop offset="0.2812" stop-color="#ffaf73" stop-opacity="0.6933"></stop><stop offset="0.4348" stop-color="#ffbc89" stop-opacity="0.5257"></stop><stop offset="0.5929" stop-color="#ffcda8" stop-opacity="0.3533"></stop><stop offset="0.7543" stop-color="#ffe4cf" stop-opacity="0.1772"></stop><stop offset="0.9168" stop-color="#ffffff" stop-opacity="0"></stop></linearGradient><linearGradient gradientTransform="matrix(0.7071 -0.7071 -0.7071 -0.7071 952.1338 2322.7275)" gradientUnits="userSpaceOnUse" id="SVGID_23_" node-id="201" x1="701.4258" x2="701.4258" y1="1673.6497" y2="1593.7394"><stop offset="0" stop-color="#ffa561"></stop><stop offset="0.1339" stop-color="#ffa865" stop-opacity="0.8539"></stop><stop offset="0.2812" stop-color="#ffaf73" stop-opacity="0.6933"></stop><stop offset="0.4348" stop-color="#ffbc89" stop-opacity="0.5257"></stop><stop offset="0.5929" stop-color="#ffcda8" stop-opacity="0.3533"></stop><stop offset="0.7543" stop-color="#ffe4cf" stop-opacity="0.1772"></stop><stop offset="0.9168" stop-color="#ffffff" stop-opacity="0"></stop></linearGradient></defs><path d="M 275.87 391.49 C 275.87 391.49 313.06 350.99 304.61 324.15 C 296.16 297.32 263.36 288.62 234.79 296.32 C 234.79 296.32 244.06 235.78 292.44 199.99 C 340.81 164.21 388.52 190.05 395.81 196.68 L 378.58 154.27 C 378.58 154.27 448.98 112.36 531.98 154.27 C 531.98 154.27 550.36 162.89 580.68 157.92 C 610.99 152.95 676.10 195.19 677.09 214.07 C 677.09 214.07 794.38 304.03 737.72 468.03 C 737.72 468.03 723.81 520.71 704.92 539.59 C 704.92 539.59 704.92 584.44 672.12 598.79 C 672.12 598.79 681.07 640.48 661.19 652.40 C 661.19 652.40 623.42 617.62 617.95 674.77 C 617.95 674.77 611.16 712.87 629.05 742.69 C 629.05 742.69 651.25 730.43 665.16 766.21 C 679.08 801.99 694.98 818.89 703.93 849.70 L 402.76 849.70 C 402.76 849.70 409.72 825.85 430.59 812.92 C 451.46 800.00 436.56 661.85 380.89 672.78 C 325.23 683.71 256.65 686.69 263.61 654.89 C 270.57 623.08 269.90 555.82 257.31 536.61 C 257.31 536.61 226.83 527.99 225.51 515.40 C 225.51 515.40 253.34 472.33 277.86 440.53 C 277.86 440.53 256.65 407.40 275.87 391.49 Z" fill="url(#XMLID_2_)" fill-rule="nonzero" node-id="422" stroke="none" target-height="737.34" target-width="568.87" target-x="225.51" target-y="112.36"></path><g node-id="693"><g clip-path="url(#XMLID_3_)" group-id="1" node-id="424"><path d="M 310.12 568.50 C 335.16 649.35 410.53 708.09 499.61 708.09 C 588.70 708.09 664.06 649.35 689.10 568.50 L 310.12 568.50 Z" fill="url(#SVGID_1_)" fill-rule="nonzero" group-id="1" node-id="426" stroke="none" target-height="139.58801" target-width="378.97598" target-x="310.124" target-y="568.497"></path></g></g><g node-id="694"><g clip-path="url(#XMLID_3_)" group-id="2" node-id="429"><path d="M 738.57 509.15 C 738.57 641.45 631.32 748.71 499.01 748.71 C 366.71 748.71 259.46 641.45 259.46 509.15 C 259.46 376.85 366.71 269.59 499.01 269.59 C 631.32 269.59 738.57 376.85 738.57 509.15 Z" fill="url(#SVGID_2_)" fill-rule="nonzero" group-id="2" node-id="431" stroke="none" target-height="479.114" target-width="479.114" target-x="259.458" target-y="269.594"></path></g></g><g node-id="695"><g clip-path="url(#XMLID_3_)" group-id="3" id="sillyvg_g_1" node-id="434"><path d="M 689.10 568.50 C 694.85 549.93 697.95 530.20 697.95 509.75 C 697.95 400.21 609.15 311.41 499.61 311.41 C 390.07 311.41 301.28 400.21 301.28 509.75 C 301.28 530.20 304.38 549.93 310.12 568.50 L 689.10 568.50 Z" fill="#ffffff" fill-rule="nonzero" group-id="3" node-id="436" stroke="none" target-height="257.084" target-width="396.672" target-x="301.276" target-y="311.413"></path><g clip-path="url(#XMLID_4_)" group-id="3,10" node-id="438"><path d="M 435.09 384.30 C 435.09 397.49 424.39 408.19 411.20 408.19 C 398.00 408.19 387.30 397.49 387.30 384.30 C 387.30 371.10 398.00 360.40 411.20 360.40 C 424.39 360.40 435.09 371.10 435.09 384.30 Z" fill="#eff0e2" fill-rule="nonzero" group-id="3,10" node-id="440" stroke="none" target-height="47.792023" target-width="47.791992" target-x="387.301" target-y="360.399"></path></g><g clip-path="url(#XMLID_4_)" group-id="3,11" node-id="443"><path d="M 448.24 454.79 C 448.24 465.35 439.68 473.90 429.12 473.90 C 418.56 473.90 410.00 465.35 410.00 454.79 C 410.00 444.23 418.56 435.67 429.12 435.67 C 439.68 435.67 448.24 444.23 448.24 454.79 Z" fill="#eff0e2" fill-rule="nonzero" group-id="3,11" node-id="445" stroke="none" target-height="38.23401" target-width="38.23398" target-x="410.002" target-y="435.671"></path></g><g clip-path="url(#XMLID_4_)" group-id="3,12" node-id="448"><path d="M 579.32 439.38 C 579.32 468.81 555.45 492.67 526.02 492.67 C 496.59 492.67 472.73 468.81 472.73 439.38 C 472.73 409.95 496.59 386.09 526.02 386.09 C 555.45 386.09 579.32 409.95 579.32 439.38 Z" fill="#eff0e2" fill-rule="nonzero" group-id="3,12" node-id="450" stroke="none" target-height="106.586" target-width="106.586" target-x="472.729" target-y="386.087"></path></g></g></g><g node-id="696"><g clip-path="url(#XMLID_3_)" group-id="4" id="sillyvg_g_2" node-id="454"><path d="M 219.19 580.52 L 363.41 687.42 L 543.93 568.42 L 199.02 568.42 Z" fill="#df4b6d" fill-opacity="0.37" fill-rule="nonzero" group-id="4" node-id="456" stroke-linecap="butt" stroke-opacity="0.37" stroke-width="1" target-height="119.00299" target-width="344.90704" target-x="199.024" target-y="568.419"></path><g clip-path="url(#SVGID_4_)" group-id="4,13" node-id="458"><path d="M 274.66 635.99 L 349.29 643.49 L 364.42 614.81 L 385.60 643.49 L 498.55 619.85 L 365.43 710.62 Z" fill="#fea7af" fill-opacity="0.37" fill-rule="nonzero" group-id="4,13" node-id="460" stroke-linecap="butt" stroke-opacity="0.37" stroke-width="1" target-height="95.80798" target-width="223.88702" target-x="274.662" target-y="614.81"></path></g><g clip-path="url(#SVGID_4_)" group-id="4,14" node-id="463"><path d="M 363.01 708.17 L 364.92 534.76 L 588.10 544.64 Z" fill="#962344" fill-opacity="0.25530002" fill-rule="nonzero" group-id="4,14" node-id="465" stroke-linecap="butt" stroke-opacity="0.25530002" stroke-width="1" target-height="173.40802" target-width="225.08801" target-x="363.015" target-y="534.761"></path></g><g clip-path="url(#SVGID_4_)" group-id="4,15" node-id="468"><path d="M 358.70 695.83 L 433.33 555.98 L 604.78 565.39 Z" fill="#962344" fill-opacity="0.25530002" fill-rule="nonzero" group-id="4,15" node-id="470" stroke-linecap="butt" stroke-opacity="0.25530002" stroke-width="1" target-height="139.84601" target-width="246.07501" target-x="358.703" target-y="555.981"></path></g><path d="M 460.15 568.48 L 624.88 767.49 L 789.60 568.48 Z" fill="#df4b6d" fill-opacity="0.37" fill-rule="nonzero" group-id="4" node-id="473" stroke-linecap="butt" stroke-opacity="0.37" stroke-width="1" target-height="199.01099" target-width="329.444" target-x="460.155" target-y="568.482"></path><g clip-path="url(#SVGID_6_)" group-id="4,16" node-id="475"><path d="M 553.26 702.95 L 595.62 716.39 L 611.96 693.38 L 642.01 721.77 L 702.52 706.31 L 618.48 781.61 Z" fill="#fea7af" fill-opacity="0.37" fill-rule="nonzero" group-id="4,16" node-id="477" stroke-linecap="butt" stroke-opacity="0.37" stroke-width="1" target-height="88.229004" target-width="149.25903" target-x="553.259" target-y="693.383"></path></g><g clip-path="url(#SVGID_6_)" group-id="4,17" node-id="480"><path d="M 582.17 522.09 L 627.89 784.97 L 820.18 551.67 Z" fill="#962344" fill-opacity="0.25530002" fill-rule="nonzero" group-id="4,17" node-id="482" stroke-linecap="butt" stroke-opacity="0.25530002" stroke-width="1" target-height="262.88202" target-width="238.00604" target-x="582.17" target-y="522.091"></path></g><g clip-path="url(#SVGID_6_)" group-id="4,18" node-id="485"><path d="M 648.73 774.22 L 642.01 721.77 L 727.39 531.50 L 814.80 556.38 Z" fill="#962344" fill-opacity="0.25530002" fill-rule="nonzero" group-id="4,18" node-id="487" stroke-linecap="butt" stroke-opacity="0.25530002" stroke-width="1" target-height="242.71198" target-width="172.789" target-x="642.008" target-y="531.504"></path></g></g></g><g node-id="697"><g clip-path="url(#XMLID_3_)" group-id="5" id="sillyvg_g_3" node-id="491"><path d="M 219.18 556.46 L 363.40 449.56 L 543.92 568.56 L 199.01 568.56 Z" fill="#df4b6d" fill-rule="nonzero" group-id="5" node-id="493" stroke="none" target-height="119.00302" target-width="344.90698" target-x="199.013" target-y="449.556"></path><g clip-path="url(#SVGID_8_)" group-id="5,19" node-id="495"><path d="M 274.65 500.99 L 349.28 493.49 L 364.41 522.17 L 385.59 493.49 L 498.54 517.13 L 365.42 426.36 Z" fill="#fea7af" fill-rule="nonzero" group-id="5,19" node-id="497" stroke="none" target-height="95.80704" target-width="223.887" target-x="274.651" target-y="426.361"></path></g><g clip-path="url(#SVGID_8_)" group-id="5,20" node-id="500"><path d="M 363.00 428.81 L 364.91 602.22 L 588.09 592.34 Z" fill="#962344" fill-opacity="0.69" fill-rule="nonzero" group-id="5,20" node-id="502" stroke-linecap="butt" stroke-opacity="0.69" stroke-width="1" target-height="173.40802" target-width="225.08798" target-x="363.004" target-y="428.81"></path></g><g clip-path="url(#SVGID_8_)" group-id="5,21" node-id="505"><path d="M 358.69 441.15 L 433.32 581.00 L 604.77 571.59 Z" fill="#962344" fill-opacity="0.69" fill-rule="nonzero" group-id="5,21" node-id="507" stroke-linecap="butt" stroke-opacity="0.69" stroke-width="1" target-height="139.84598" target-width="246.074" target-x="358.692" target-y="441.152"></path></g><path d="M 460.14 568.50 L 624.87 369.49 L 789.59 568.50 Z" fill="#df4b6d" fill-rule="nonzero" group-id="5" node-id="510" stroke="none" target-height="199.01102" target-width="329.444" target-x="460.144" target-y="369.486"></path><g clip-path="url(#SVGID_10_)" group-id="5,22" node-id="512"><path d="M 553.25 434.03 L 595.61 420.58 L 611.95 443.60 L 642.00 415.20 L 702.51 430.67 L 618.47 355.37 Z" fill="#fea7af" fill-rule="nonzero" group-id="5,22" node-id="514" stroke="none" target-height="88.229004" target-width="149.25903" target-x="553.248" target-y="355.367"></path></g><g clip-path="url(#SVGID_10_)" group-id="5,23" node-id="517"><path d="M 582.16 614.89 L 627.88 352.00 L 820.16 585.30 Z" fill="#962344" fill-opacity="0.69" fill-rule="nonzero" group-id="5,23" node-id="519" stroke-linecap="butt" stroke-opacity="0.69" stroke-width="1" target-height="262.883" target-width="238.00598" target-x="582.159" target-y="352.005"></path></g><g clip-path="url(#SVGID_10_)" group-id="5,24" node-id="522"><path d="M 648.72 362.76 L 642.00 415.20 L 727.38 605.48 L 814.79 580.60 Z" fill="#962344" fill-opacity="0.69" fill-rule="nonzero" group-id="5,24" node-id="524" stroke-linecap="butt" stroke-opacity="0.69" stroke-width="1" target-height="242.71198" target-width="172.789" target-x="641.997" target-y="362.763"></path></g></g></g><g node-id="698"><g clip-path="url(#XMLID_3_)" group-id="6" id="sillyvg_g_4" node-id="528"><path d="M 206.58 628.29 L 458.64 646.12 L 314.79 663.94 L 644.50 703.40 L 913.11 665.85 L 429.36 615.57 Z" fill="url(#SVGID_11_)" fill-rule="nonzero" group-id="6" node-id="530" stroke="none" target-height="87.83801" target-width="706.523" target-x="206.583" target-y="615.565"></path><path d="M 258.35 734.38 L 644.50 703.40 L 913.11 729.29 L 626.68 763.24 Z" fill="url(#SVGID_12_)" fill-rule="nonzero" group-id="6" node-id="532" stroke="none" target-height="59.83197" target-width="654.754" target-x="258.352" target-y="703.403"></path><path d="M 418.75 785.30 L 626.68 763.24 L 854.97 785.30 L 626.68 816.70 Z" fill="url(#SVGID_13_)" fill-rule="nonzero" group-id="6" node-id="534" stroke="none" target-height="53.46704" target-width="436.21997" target-x="418.752" target-y="763.235"></path><path d="M 423.00 844.71 L 626.68 816.70 L 798.11 837.92 L 650.44 875.26 Z" fill="url(#SVGID_14_)" fill-rule="nonzero" group-id="6" node-id="536" stroke="none" target-height="58.557983" target-width="375.115" target-x="422.995" target-y="816.702"></path></g></g><g node-id="699"><g clip-path="url(#XMLID_3_)" group-id="7" node-id="539"><path d="M 225.51 568.42 L 733.79 568.42 L 795.92 863.41 L 253.48 884.91 Z" fill="url(#SVGID_15_)" fill-rule="nonzero" group-id="7" node-id="541" stroke="none" target-height="316.49" target-width="570.41" target-x="225.51" target-y="568.42"></path></g></g><g node-id="700"><g clip-path="url(#XMLID_3_)" group-id="8" id="sillyvg_g_5" node-id="544"><path d="M 315.66 217.82 C 315.66 218.51 315.11 219.06 314.42 219.06 C 313.73 219.06 313.17 218.51 313.17 217.82 C 313.17 217.13 313.73 216.57 314.42 216.57 C 315.11 216.57 315.66 217.13 315.66 217.82 Z" fill="#ffffff" fill-opacity="0.42" fill-rule="nonzero" group-id="8,25" node-id="548" stroke-linecap="butt" stroke-opacity="0.42" stroke-width="1" target-height="2.4900055" target-width="2.4899902" target-x="313.174" target-y="216.575"></path><path d="M 370.71 210.65 C 370.71 211.38 370.11 211.98 369.38 211.98 C 368.65 211.98 368.05 211.38 368.05 210.65 C 368.05 209.92 368.65 209.32 369.38 209.32 C 370.11 209.32 370.71 209.92 370.71 210.65 Z" fill="#ffffff" fill-rule="nonzero" group-id="8" node-id="551" stroke="none" target-height="2.6560059" target-width="2.6560059" target-x="368.051" target-y="209.323"></path><path d="M 420.89 294.69 C 420.89 296.30 419.58 297.61 417.97 297.61 C 416.35 297.61 415.05 296.30 415.05 294.69 C 415.05 293.07 416.35 291.76 417.97 291.76 C 419.58 291.76 420.89 293.07 420.89 294.69 Z" fill="#ffffff" fill-opacity="0.44" fill-rule="nonzero" group-id="8,26" node-id="555" stroke-linecap="butt" stroke-opacity="0.44" stroke-width="1" target-height="5.84198" target-width="5.8420105" target-x="415.047" target-y="291.764"></path><path d="M 643.49 261.53 C 643.49 261.81 643.26 262.03 642.99 262.03 C 642.71 262.03 642.49 261.81 642.49 261.53 C 642.49 261.26 642.71 261.03 642.99 261.03 C 643.26 261.03 643.49 261.26 643.49 261.53 Z" fill="#ffffff" fill-rule="nonzero" group-id="8" node-id="558" stroke="none" target-height="0.99798584" target-width="0.99798584" target-x="642.489" target-y="261.032"></path><path d="M 616.11 191.53 C 616.11 192.30 615.48 192.93 614.71 192.93 C 613.94 192.93 613.32 192.30 613.32 191.53 C 613.32 190.77 613.94 190.14 614.71 190.14 C 615.48 190.14 616.11 190.77 616.11 191.53 Z" fill="#ffffff" fill-opacity="0.22" fill-rule="nonzero" group-id="8,27" node-id="562" stroke-linecap="butt" stroke-opacity="0.22" stroke-width="1" target-height="2.7879944" target-width="2.7879639" target-x="613.317" target-y="190.141"></path><path d="M 518.10 224.99 C 518.10 226.18 517.13 227.15 515.94 227.15 C 514.75 227.15 513.78 226.18 513.78 224.99 C 513.78 223.80 514.75 222.83 515.94 222.83 C 517.13 222.83 518.10 223.80 518.10 224.99 Z" fill="#ffffff" fill-rule="nonzero" group-id="8" node-id="565" stroke="none" target-height="4.3139954" target-width="4.314026" target-x="513.784" target-y="222.832"></path><path d="M 412.13 198.70 C 412.13 199.44 411.53 200.03 410.80 200.03 C 410.07 200.03 409.47 199.44 409.47 198.70 C 409.47 197.97 410.07 197.38 410.80 197.38 C 411.53 197.38 412.13 197.97 412.13 198.70 Z" fill="#ffffff" fill-rule="nonzero" group-id="8" node-id="567" stroke="none" target-height="2.6560059" target-width="2.6560059" target-x="409.471" target-y="197.375"></path><path d="M 373.63 287.52 C 373.63 287.88 373.33 288.18 372.96 288.18 C 372.60 288.18 372.30 287.88 372.30 287.52 C 372.30 287.15 372.60 286.85 372.96 286.85 C 373.33 286.85 373.63 287.15 373.63 287.52 Z" fill="#ffffff" fill-rule="nonzero" group-id="8" node-id="569" stroke="none" target-height="1.3280029" target-width="1.3280029" target-x="372.3" target-y="286.853"></path><path d="M 265.98 268.70 C 265.98 269.22 265.56 269.65 265.03 269.65 C 264.51 269.65 264.09 269.22 264.09 268.70 C 264.09 268.18 264.51 267.75 265.03 267.75 C 265.56 267.75 265.98 268.18 265.98 268.70 Z" fill="#ffffff" fill-rule="nonzero" group-id="8" node-id="571" stroke="none" target-height="1.8940125" target-width="1.8939819" target-x="264.087" target-y="267.753"></path><path d="M 723.09 395.45 C 723.09 395.91 722.71 396.29 722.24 396.29 C 721.77 396.29 721.40 395.91 721.40 395.45 C 721.40 394.98 721.77 394.60 722.24 394.60 C 722.71 394.60 723.09 394.98 723.09 395.45 Z" fill="#ffffff" fill-rule="nonzero" group-id="8" node-id="573" stroke="none" target-height="1.6919861" target-width="1.6920166" target-x="721.396" target-y="394.601"></path><path d="M 521.00 268.70 C 521.00 269.52 520.34 270.18 519.52 270.18 C 518.71 270.18 518.05 269.52 518.05 268.70 C 518.05 267.88 518.71 267.22 519.52 267.22 C 520.34 267.22 521.00 267.88 521.00 268.70 Z" fill="#ffffff" fill-rule="nonzero" group-id="8" node-id="575" stroke="none" target-height="2.9560242" target-width="2.9559937" target-x="518.047" target-y="267.222"></path><path d="M 552.55 191.53 C 552.55 191.98 552.20 192.33 551.75 192.33 C 551.31 192.33 550.96 191.98 550.96 191.53 C 550.96 191.09 551.31 190.74 551.75 190.74 C 552.20 190.74 552.55 191.09 552.55 191.53 Z" fill="#ffffff" fill-rule="nonzero" group-id="8" node-id="577" stroke="none" target-height="1.5939941" target-width="1.5939941" target-x="550.958" target-y="190.738"></path><path d="M 691.08 275.87 C 691.08 276.47 690.59 276.96 689.98 276.96 C 689.38 276.96 688.89 276.47 688.89 275.87 C 688.89 275.26 689.38 274.77 689.98 274.77 C 690.59 274.77 691.08 275.26 691.08 275.87 Z" fill="#ffffff" fill-opacity="0.38" fill-rule="nonzero" group-id="8,28" node-id="581" stroke-linecap="butt" stroke-opacity="0.38" stroke-width="1" target-height="2.191986" target-width="2.1919556" target-x="688.887" target-y="274.773"></path><path d="M 670.50 344.07 C 670.50 344.53 670.13 344.90 669.67 344.90 C 669.21 344.90 668.84 344.53 668.84 344.07 C 668.84 343.61 669.21 343.24 669.67 343.24 C 670.13 343.24 670.50 343.61 670.50 344.07 Z" fill="#ffffff" fill-rule="nonzero" group-id="8" node-id="584" stroke="none" target-height="1.6600037" target-width="1.6599731" target-x="668.841" target-y="343.24"></path><path d="M 597.52 287.52 C 597.52 288.14 597.01 288.64 596.39 288.64 C 595.77 288.64 595.26 288.14 595.26 287.52 C 595.26 286.89 595.77 286.39 596.39 286.39 C 597.01 286.39 597.52 286.89 597.52 287.52 Z" fill="#ffffff" fill-rule="nonzero" group-id="8" node-id="586" stroke="none" target-height="2.2559814" target-width="2.2559814" target-x="595.263" target-y="286.389"></path><path d="M 458.55 248.68 C 458.55 249.53 457.86 250.23 457.00 250.23 C 456.14 250.23 455.44 249.53 455.44 248.68 C 455.44 247.82 456.14 247.12 457.00 247.12 C 457.86 247.12 458.55 247.82 458.55 248.68 Z" fill="#ffffff" fill-rule="nonzero" group-id="8" node-id="588" stroke="none" target-height="3.1100006" target-width="3.1100159" target-x="455.443" target-y="247.12"></path><path d="M 593.60 221.41 C 593.60 221.85 593.25 222.20 592.81 222.20 C 592.37 222.20 592.01 221.85 592.01 221.41 C 592.01 220.96 592.37 220.61 592.81 220.61 C 593.25 220.61 593.60 220.96 593.60 221.41 Z" fill="#ffffff" fill-rule="nonzero" group-id="8" node-id="590" stroke="none" target-height="1.5939941" target-width="1.5940552" target-x="592.009" target-y="220.608"></path><path d="M 447.64 158.48 C 447.64 159.91 446.48 161.07 445.05 161.07 C 443.62 161.07 442.46 159.91 442.46 158.48 C 442.46 157.05 443.62 155.89 445.05 155.89 C 446.48 155.89 447.64 157.05 447.64 158.48 Z" fill="#ffffff" fill-rule="nonzero" group-id="8" node-id="592" stroke="none" target-height="5.177994" target-width="5.178009" target-x="442.461" target-y="155.89"></path><path d="M 480.83 187.95 C 480.83 188.35 480.50 188.68 480.10 188.68 C 479.69 188.68 479.37 188.35 479.37 187.95 C 479.37 187.55 479.69 187.22 480.10 187.22 C 480.50 187.22 480.83 187.55 480.83 187.95 Z" fill="#ffffff" fill-opacity="0.63" fill-rule="nonzero" group-id="8,29" node-id="596" stroke-linecap="butt" stroke-opacity="0.63" stroke-width="1" target-height="1.4599915" target-width="1.4599915" target-x="479.367" target-y="187.22"></path><path d="M 297.09 399.03 C 297.09 399.80 296.47 400.43 295.70 400.43 C 294.93 400.43 294.31 399.80 294.31 399.03 C 294.31 398.26 294.93 397.64 295.70 397.64 C 296.47 397.64 297.09 398.26 297.09 399.03 Z" fill="#ffffff" fill-opacity="0.5" fill-rule="nonzero" group-id="8,30" node-id="601" stroke-linecap="butt" stroke-opacity="0.5" stroke-width="1" target-height="2.7879944" target-width="2.7879944" target-x="294.306" target-y="397.637"></path><path d="M 315.66 275.87 C 315.66 276.56 315.11 277.11 314.42 277.11 C 313.73 277.11 313.17 276.56 313.17 275.87 C 313.17 275.18 313.73 274.62 314.42 274.62 C 315.11 274.62 315.66 275.18 315.66 275.87 Z" fill="#ffffff" fill-rule="nonzero" group-id="8" node-id="604" stroke="none" target-height="2.4900208" target-width="2.4899902" target-x="313.174" target-y="274.624"></path><path d="M 391.33 245.09 C 391.33 245.98 390.61 246.70 389.72 246.70 C 388.83 246.70 388.11 245.98 388.11 245.09 C 388.11 244.20 388.83 243.48 389.72 243.48 C 390.61 243.48 391.33 244.20 391.33 245.09 Z" fill="#ffffff" fill-rule="nonzero" group-id="8" node-id="606" stroke="none" target-height="3.2140045" target-width="3.2139893" target-x="388.113" target-y="243.484"></path><path d="M 345.38 330.93 C 345.38 331.75 344.71 332.42 343.89 332.42 C 343.07 332.42 342.40 331.75 342.40 330.93 C 342.40 330.10 343.07 329.44 343.89 329.44 C 344.71 329.44 345.38 330.10 345.38 330.93 Z" fill="#ffffff" fill-rule="nonzero" group-id="8" node-id="608" stroke="none" target-height="2.9859924" target-width="2.9859924" target-x="342.397" target-y="329.435"></path><path d="M 349.82 250.87 L 349.82 250.87 C 349.05 250.09 349.05 248.82 349.82 248.05 L 405.37 194.56 C 406.14 193.79 406.80 194.45 406.03 195.22 L 352.64 250.87 C 351.86 251.64 350.60 251.64 349.82 250.87 Z" fill="url(#SVGID_16_)" fill-rule="nonzero" group-id="8" node-id="610" stroke="none" target-height="57.224716" target-width="57.131165" target-x="349.2405" target-y="194.22078"></path><path d="M 679.75 320.94 L 679.75 320.94 C 679.26 320.45 679.26 319.64 679.75 319.15 L 714.99 285.23 C 715.48 284.73 715.90 285.15 715.41 285.64 L 681.54 320.94 C 681.05 321.43 680.24 321.43 679.75 320.94 Z" fill="url(#SVGID_17_)" fill-rule="nonzero" group-id="8" node-id="612" stroke="none" target-height="36.30237" target-width="36.242615" target-x="679.38477" target-y="285.00665"></path><path d="M 581.21 229.84 L 581.21 229.84 C 580.12 228.75 580.12 226.95 581.21 225.86 L 659.89 150.10 C 660.99 149.01 661.92 149.94 660.82 151.04 L 585.20 229.84 C 584.11 230.94 582.31 230.94 581.21 229.84 Z" fill="url(#SVGID_18_)" fill-rule="nonzero" group-id="8" node-id="614" stroke="none" target-height="81.04996" target-width="80.917725" target-x="580.39124" target-y="149.61703"></path><path d="M 264.67 411.65 L 264.67 411.65 C 263.89 410.87 263.89 409.61 264.67 408.83 L 320.22 355.35 C 320.99 354.57 321.65 355.23 320.87 356.00 L 267.48 411.65 C 266.71 412.42 265.44 412.42 264.67 411.65 Z" fill="url(#SVGID_19_)" fill-rule="nonzero" group-id="8" node-id="616" stroke="none" target-height="57.22473" target-width="57.131165" target-x="264.0875" target-y="355.00378"></path></g></g><g clip-path="url(#XMLID_3_)" group-id="9" id="sillyvg_g_6" node-id="619"><path d="M 437.98 683.13 C 437.98 683.81 437.42 684.37 436.73 684.37 C 436.05 684.37 435.49 683.81 435.49 683.13 C 435.49 682.44 436.05 681.88 436.73 681.88 C 437.42 681.88 437.98 682.44 437.98 683.13 Z" fill="#ffffff" fill-opacity="0.42" fill-rule="nonzero" group-id="9,31" node-id="623" stroke-linecap="butt" stroke-opacity="0.42" stroke-width="1" target-height="2.4899902" target-width="2.4899902" target-x="435.488" target-y="681.882"></path><path d="M 493.02 690.30 C 493.02 691.03 492.43 691.62 491.69 691.62 C 490.96 691.62 490.37 691.03 490.37 690.30 C 490.37 689.56 490.96 688.97 491.69 688.97 C 492.43 688.97 493.02 689.56 493.02 690.30 Z" fill="#ffffff" fill-rule="nonzero" group-id="9" node-id="626" stroke="none" target-height="2.6560059" target-width="2.6560059" target-x="490.366" target-y="688.968"></path><path d="M 543.20 606.26 C 543.20 607.88 541.90 609.18 540.28 609.18 C 538.67 609.18 537.36 607.88 537.36 606.26 C 537.36 604.65 538.67 603.34 540.28 603.34 C 541.90 603.34 543.20 604.65 543.20 606.26 Z" fill="#ffffff" fill-opacity="0.44" fill-rule="nonzero" group-id="9,32" node-id="630" stroke-linecap="butt" stroke-opacity="0.44" stroke-width="1" target-height="5.84198" target-width="5.84198" target-x="537.361" target-y="603.341"></path><path d="M 643.49 793.41 C 643.49 793.69 643.26 793.91 642.99 793.91 C 642.71 793.91 642.49 793.69 642.49 793.41 C 642.49 793.14 642.71 792.91 642.99 792.91 C 643.26 792.91 643.49 793.14 643.49 793.41 Z" fill="#ffffff" fill-rule="nonzero" group-id="9" node-id="633" stroke="none" target-height="0.99798584" target-width="0.99798584" target-x="642.489" target-y="792.913"></path><path d="M 592.66 640.18 C 592.66 640.95 592.04 641.58 591.27 641.58 C 590.50 641.58 589.87 640.95 589.87 640.18 C 589.87 639.41 590.50 638.79 591.27 638.79 C 592.04 638.79 592.66 639.41 592.66 640.18 Z" fill="#ffffff" fill-opacity="0.22" fill-rule="nonzero" group-id="9,33" node-id="637" stroke-linecap="butt" stroke-opacity="0.22" stroke-width="1" target-height="2.788025" target-width="2.7879639" target-x="589.874" target-y="638.787"></path><path d="M 518.10 829.95 C 518.10 831.15 517.13 832.11 515.94 832.11 C 514.75 832.11 513.78 831.15 513.78 829.95 C 513.78 828.76 514.75 827.80 515.94 827.80 C 517.13 827.80 518.10 828.76 518.10 829.95 Z" fill="#ffffff" fill-rule="nonzero" group-id="9" node-id="640" stroke="none" target-height="4.314026" target-width="4.314026" target-x="513.784" target-y="827.797"></path><path d="M 388.68 633.01 C 388.68 633.75 388.09 634.34 387.36 634.34 C 386.62 634.34 386.03 633.75 386.03 633.01 C 386.03 632.28 386.62 631.68 387.36 631.68 C 388.09 631.68 388.68 632.28 388.68 633.01 Z" fill="#ffffff" fill-rule="nonzero" group-id="9" node-id="642" stroke="none" target-height="2.6560059" target-width="2.6559753" target-x="386.028" target-y="631.684"></path><path d="M 532.12 629.21 C 532.12 629.57 531.82 629.87 531.45 629.87 C 531.08 629.87 530.79 629.57 530.79 629.21 C 530.79 628.84 531.08 628.54 531.45 628.54 C 531.82 628.54 532.12 628.84 532.12 629.21 Z" fill="#ffffff" fill-rule="nonzero" group-id="9" node-id="644" stroke="none" target-height="1.3280029" target-width="1.3280029" target-x="530.787" target-y="628.542"></path><path d="M 424.47 648.02 C 424.47 648.55 424.04 648.97 423.52 648.97 C 423.00 648.97 422.57 648.55 422.57 648.02 C 422.57 647.50 423.00 647.08 423.52 647.08 C 424.04 647.08 424.47 647.50 424.47 648.02 Z" fill="#ffffff" fill-rule="nonzero" group-id="9" node-id="646" stroke="none" target-height="1.8939819" target-width="1.8939819" target-x="422.574" target-y="647.076"></path><path d="M 723.09 659.50 C 723.09 659.96 722.71 660.34 722.24 660.34 C 721.77 660.34 721.40 659.96 721.40 659.50 C 721.40 659.03 721.77 658.65 722.24 658.65 C 722.71 658.65 723.09 659.03 723.09 659.50 Z" fill="#ffffff" fill-rule="nonzero" group-id="9" node-id="648" stroke="none" target-height="1.6920166" target-width="1.6920166" target-x="721.396" target-y="658.651"></path><path d="M 521.00 786.24 C 521.00 787.06 520.34 787.72 519.52 787.72 C 518.71 787.72 518.05 787.06 518.05 786.24 C 518.05 785.43 518.71 784.76 519.52 784.76 C 520.34 784.76 521.00 785.43 521.00 786.24 Z" fill="#ffffff" fill-rule="nonzero" group-id="9" node-id="650" stroke="none" target-height="2.9559937" target-width="2.9559937" target-x="518.047" target-y="784.765"></path><path d="M 552.55 863.41 C 552.55 863.85 552.20 864.21 551.75 864.21 C 551.31 864.21 550.96 863.85 550.96 863.41 C 550.96 862.97 551.31 862.61 551.75 862.61 C 552.20 862.61 552.55 862.97 552.55 863.41 Z" fill="#ffffff" fill-rule="nonzero" group-id="9" node-id="652" stroke="none" target-height="1.5939941" target-width="1.5939941" target-x="550.958" target-y="862.612"></path><path d="M 691.08 779.07 C 691.08 779.68 690.59 780.17 689.98 780.17 C 689.38 780.17 688.89 779.68 688.89 779.07 C 688.89 778.47 689.38 777.98 689.98 777.98 C 690.59 777.98 691.08 778.47 691.08 779.07 Z" fill="#ffffff" fill-opacity="0.38" fill-rule="nonzero" group-id="9,34" node-id="656" stroke-linecap="butt" stroke-opacity="0.38" stroke-width="1" target-height="2.1919556" target-width="2.1919556" target-x="688.887" target-y="777.978"></path><path d="M 670.50 710.87 C 670.50 711.33 670.13 711.70 669.67 711.70 C 669.21 711.70 668.84 711.33 668.84 710.87 C 668.84 710.41 669.21 710.04 669.67 710.04 C 670.13 710.04 670.50 710.41 670.50 710.87 Z" fill="#ffffff" fill-rule="nonzero" group-id="9" node-id="659" stroke="none" target-height="1.6599731" target-width="1.6599731" target-x="668.841" target-y="710.043"></path><path d="M 597.52 767.43 C 597.52 768.05 597.01 768.55 596.39 768.55 C 595.77 768.55 595.26 768.05 595.26 767.43 C 595.26 766.80 595.77 766.30 596.39 766.30 C 597.01 766.30 597.52 766.80 597.52 767.43 Z" fill="#ffffff" fill-rule="nonzero" group-id="9" node-id="661" stroke="none" target-height="2.2559814" target-width="2.2559814" target-x="595.263" target-y="766.299"></path><path d="M 458.55 806.27 C 458.55 807.13 457.86 807.82 457.00 807.82 C 456.14 807.82 455.44 807.13 455.44 806.27 C 455.44 805.41 456.14 804.71 457.00 804.71 C 457.86 804.71 458.55 805.41 458.55 806.27 Z" fill="#ffffff" fill-rule="nonzero" group-id="9" node-id="663" stroke="none" target-height="3.1099854" target-width="3.1100159" target-x="455.443" target-y="804.713"></path><path d="M 593.60 833.54 C 593.60 833.98 593.25 834.34 592.81 834.34 C 592.37 834.34 592.01 833.98 592.01 833.54 C 592.01 833.10 592.37 832.74 592.81 832.74 C 593.25 832.74 593.60 833.10 593.60 833.54 Z" fill="#ffffff" fill-rule="nonzero" group-id="9" node-id="665" stroke="none" target-height="1.5939941" target-width="1.5940552" target-x="592.009" target-y="832.742"></path><path d="M 447.64 896.47 C 447.64 897.89 446.48 899.05 445.05 899.05 C 443.62 899.05 442.46 897.89 442.46 896.47 C 442.46 895.04 443.62 893.88 445.05 893.88 C 446.48 893.88 447.64 895.04 447.64 896.47 Z" fill="#ffffff" fill-rule="nonzero" group-id="9" node-id="667" stroke="none" target-height="5.1780396" target-width="5.178009" target-x="442.461" target-y="893.876"></path><path d="M 480.83 866.99 C 480.83 867.40 480.50 867.72 480.10 867.72 C 479.69 867.72 479.37 867.40 479.37 866.99 C 479.37 866.59 479.69 866.26 480.10 866.26 C 480.50 866.26 480.83 866.59 480.83 866.99 Z" fill="#ffffff" fill-opacity="0.63" fill-rule="nonzero" group-id="9,35" node-id="671" stroke-linecap="butt" stroke-opacity="0.63" stroke-width="1" target-height="1.460022" target-width="1.4599915" target-x="479.367" target-y="866.263"></path><path d="M 297.09 655.91 C 297.09 656.68 296.47 657.31 295.70 657.31 C 294.93 657.31 294.31 656.68 294.31 655.91 C 294.31 655.14 294.93 654.52 295.70 654.52 C 296.47 654.52 297.09 655.14 297.09 655.91 Z" fill="#ffffff" fill-opacity="0.5" fill-rule="nonzero" group-id="9,36" node-id="676" stroke-linecap="butt" stroke-opacity="0.5" stroke-width="1" target-height="2.788025" target-width="2.7879944" target-x="294.306" target-y="654.518"></path><path d="M 315.66 779.07 C 315.66 779.76 315.11 780.32 314.42 780.32 C 313.73 780.32 313.17 779.76 313.17 779.07 C 313.17 778.39 313.73 777.83 314.42 777.83 C 315.11 777.83 315.66 778.39 315.66 779.07 Z" fill="#ffffff" fill-rule="nonzero" group-id="9" node-id="679" stroke="none" target-height="2.4899902" target-width="2.4899902" target-x="313.174" target-y="777.829"></path><path d="M 391.33 809.85 C 391.33 810.74 390.61 811.46 389.72 811.46 C 388.83 811.46 388.11 810.74 388.11 809.85 C 388.11 808.97 388.83 808.25 389.72 808.25 C 390.61 808.25 391.33 808.97 391.33 809.85 Z" fill="#ffffff" fill-rule="nonzero" group-id="9" node-id="681" stroke="none" target-height="3.2140503" target-width="3.2139893" target-x="388.113" target-y="808.246"></path><path d="M 345.38 724.02 C 345.38 724.84 344.71 725.51 343.89 725.51 C 343.07 725.51 342.40 724.84 342.40 724.02 C 342.40 723.19 343.07 722.52 343.89 722.52 C 344.71 722.52 345.38 723.19 345.38 724.02 Z" fill="#ffffff" fill-rule="nonzero" group-id="9" node-id="683" stroke="none" target-height="2.985962" target-width="2.9859924" target-x="342.397" target-y="722.523"></path><path d="M 349.82 804.08 L 349.82 804.08 C 349.05 804.85 349.05 806.12 349.82 806.89 L 405.37 860.38 C 406.14 861.15 406.80 860.50 406.03 859.72 L 352.64 804.08 C 351.86 803.30 350.60 803.30 349.82 804.08 Z" fill="url(#SVGID_20_)" fill-rule="nonzero" group-id="9" node-id="685" stroke="none" target-height="57.22534" target-width="57.131195" target-x="349.2405" target-y="803.4978"></path><path d="M 679.75 734.00 L 679.75 734.00 C 679.26 734.49 679.26 735.30 679.75 735.79 L 714.99 769.72 C 715.48 770.21 715.90 769.79 715.41 769.30 L 681.54 734.00 C 681.05 733.51 680.24 733.51 679.75 734.00 Z" fill="url(#SVGID_21_)" fill-rule="nonzero" group-id="9" node-id="687" stroke="none" target-height="36.301575" target-width="36.242615" target-x="679.38477" target-y="733.63477"></path><path d="M 581.21 825.10 L 581.21 825.10 C 580.12 826.20 580.12 827.99 581.21 829.09 L 659.89 904.84 C 660.99 905.94 661.92 905.00 660.82 903.91 L 585.20 825.10 C 584.11 824.00 582.31 824.00 581.21 825.10 Z" fill="url(#SVGID_22_)" fill-rule="nonzero" group-id="9" node-id="689" stroke="none" target-height="81.0506" target-width="80.917786" target-x="580.39124" target-y="824.2763"></path><path d="M 264.67 643.29 L 264.67 643.29 C 263.89 644.07 263.89 645.34 264.67 646.11 L 320.22 699.60 C 320.99 700.37 321.65 699.71 320.87 698.94 L 267.48 643.29 C 266.71 642.52 265.44 642.52 264.67 643.29 Z" fill="url(#SVGID_23_)" fill-rule="nonzero" group-id="9" node-id="691" stroke="none" target-height="57.22473" target-width="57.131165" target-x="264.0875" target-y="642.7145"></path></g></svg>